<svg width="16" height="20" viewBox="0 0 16 20" fill="none" xmlns="http://www.w3.org/2000/svg">
<path d="M13.53 7.50001H12.918V5.10001C12.9469 4.43609 12.8401 3.77326 12.6041 3.15202C12.3681 2.53078 12.008 1.96419 11.5456 1.48685C11.0833 1.00952 10.5284 0.631483 9.91502 0.375838C9.30161 0.120192 8.64252 -0.00768942 7.97802 7.4617e-06C7.31603 -0.00369588 6.66021 0.127387 6.0505 0.385272C5.44079 0.643157 4.88995 1.02245 4.43153 1.50005C3.97311 1.97765 3.6167 2.54356 3.38401 3.16332C3.15132 3.78308 3.04721 4.44372 3.07803 5.10501V7.48101H2.47003C1.81081 7.48892 1.1814 7.75689 0.718802 8.22661C0.256204 8.69632 -0.00213204 9.32975 2.50317e-05 9.98901V17.489C-0.00292545 18.1488 0.25506 18.783 0.717743 19.2533C1.18043 19.7237 1.81029 19.9921 2.47003 20H13.53C14.1892 19.9921 14.8187 19.7241 15.2812 19.2544C15.7438 18.7847 16.0022 18.1513 16 17.492V9.99201C16.0027 9.33408 15.744 8.70202 15.2808 8.23474C14.8177 7.76745 14.1879 7.50318 13.53 7.50001ZM4.30603 7.50001V5.10001C4.27741 4.60163 4.35138 4.10268 4.52337 3.63404C4.69536 3.1654 4.9617 2.73705 5.30591 2.3755C5.65013 2.01395 6.06488 1.72689 6.5245 1.53209C6.98413 1.33729 7.47884 1.2389 7.97802 1.24301C8.48038 1.23617 8.9788 1.33251 9.44241 1.52608C9.90603 1.71966 10.325 2.00633 10.6733 2.36836C11.0217 2.73039 11.292 3.16007 11.4676 3.6308C11.6431 4.10153 11.7202 4.60329 11.694 5.10501V7.48101H4.30603V7.50001ZM14.754 17.489C14.7555 17.651 14.7249 17.8118 14.6642 17.962C14.6034 18.1122 14.5136 18.249 14.3999 18.3645C14.2862 18.4799 14.1509 18.5718 14.0016 18.6349C13.8523 18.698 13.6921 18.731 13.53 18.732H2.47003C2.30798 18.731 2.14774 18.698 1.99847 18.6349C1.8492 18.5718 1.71384 18.4799 1.60014 18.3645C1.48644 18.249 1.39663 18.1122 1.33587 17.962C1.27511 17.8118 1.24457 17.651 1.24603 17.489V9.98901C1.24457 9.82697 1.27511 9.66623 1.33587 9.51601C1.39663 9.36578 1.48644 9.22903 1.60014 9.11356C1.71384 8.9981 1.8492 8.9062 1.99847 8.84313C2.14774 8.78006 2.30798 8.74705 2.47003 8.74601H13.53C13.6921 8.74705 13.8523 8.78006 14.0016 8.84313C14.1509 8.9062 14.2862 8.9981 14.3999 9.11356C14.5136 9.22903 14.6034 9.36578 14.6642 9.51601C14.7249 9.66623 14.7555 9.82697 14.754 9.98901V17.489ZM9.22402 12.5C9.22601 12.719 9.17054 12.9347 9.06316 13.1256C8.95578 13.3165 8.80023 13.476 8.61203 13.588V15.63C8.61203 15.7923 8.54755 15.948 8.43277 16.0628C8.318 16.1775 8.16234 16.242 8.00002 16.242C7.83771 16.242 7.68205 16.1775 7.56728 16.0628C7.4525 15.948 7.38802 15.7923 7.38802 15.63V13.585C7.20026 13.4732 7.045 13.3143 6.93764 13.1239C6.83028 12.9336 6.77457 12.7185 6.77602 12.5C6.77418 12.3377 6.80441 12.1767 6.865 12.0261C6.92559 11.8755 7.01533 11.7384 7.12907 11.6226C7.2428 11.5068 7.3783 11.4147 7.52777 11.3514C7.67723 11.2882 7.83773 11.2551 8.00002 11.254C8.16357 11.2506 8.32607 11.2807 8.47757 11.3424C8.62906 11.4041 8.76634 11.4961 8.88097 11.6128C8.9956 11.7295 9.08516 11.8684 9.14416 12.021C9.20315 12.1735 9.23033 12.3366 9.22402 12.5Z" fill="black" fill-opacity="0.5"/>
</svg>
