<svg width="180" height="35" viewBox="0 0 180 35" fill="none" xmlns="http://www.w3.org/2000/svg">
<rect width="2.76407" height="34.5509" fill="#F00D0D"/>
<rect x="34.5509" width="2.76407" height="31.7868" transform="rotate(90 34.5509 0)" fill="#F00D0D"/>
<rect x="31.7868" y="2.76407" width="2.76407" height="5.18263" fill="#F00D0D"/>
<path d="M31.7868 13.8204L34.5509 11.4018V19.003H31.7868V13.8204Z" fill="#F00D0D"/>
<rect x="6.91022" y="17.1075" width="2.76407" height="11.6346" transform="rotate(-43.5713 6.91022 17.1075)" fill="black"/>
<path d="M32 7.00002L34.6154 7.93882L14.9594 25.4248L13.1222 23.3596L32 7.00002Z" fill="black"/>
<rect x="33.1688" y="31.7868" width="2.76407" height="31.7868" transform="rotate(90 33.1688 31.7868)" fill="#F00D0D"/>
<rect x="34.5509" y="34.5509" width="2.76407" height="16.5844" transform="rotate(-180 34.5509 34.5509)" fill="#F00D0D"/>
<path d="M48.4615 34.6154V0H62.7676C65.8474 0 68.4801 0.494505 70.6657 1.48352C72.8845 2.47253 74.59 3.89011 75.7821 5.73626C76.9743 7.58242 77.5704 9.77473 77.5704 12.3132C77.5704 14.8516 76.9743 17.044 75.7821 18.8901C74.59 20.7363 72.8845 22.1538 70.6657 23.1429C68.4801 24.1319 65.8474 24.6264 62.7676 24.6264H52.0381L54.9191 21.6099V34.6154H48.4615ZM54.9191 22.3022L52.0381 19.1868H62.4696C65.3175 19.1868 67.4535 18.5934 68.8775 17.4066C70.3346 16.1868 71.0631 14.489 71.0631 12.3132C71.0631 10.1044 70.3346 8.40659 68.8775 7.21978C67.4535 6.03297 65.3175 5.43956 62.4696 5.43956H52.0381L54.9191 2.27472V22.3022Z" fill="black"/>
<path d="M90.054 34.6154V5.43956H78.5297V0H108.036V5.43956H96.5116V34.6154H90.054Z" fill="black"/>
<path d="M112.882 34.6154V0H128.082C131.858 0 135.169 0.725274 138.017 2.17582C140.865 3.62637 143.084 5.63736 144.673 8.20879C146.263 10.7802 147.058 13.8132 147.058 17.3077C147.058 20.7692 146.263 23.8022 144.673 26.4066C143.084 28.978 140.865 30.989 138.017 32.4396C135.169 33.8901 131.858 34.6154 128.082 34.6154H112.882ZM119.34 29.1758H127.784C130.401 29.1758 132.652 28.6813 134.54 27.6923C136.461 26.7033 137.934 25.3187 138.961 23.5385C140.021 21.7582 140.551 19.6813 140.551 17.3077C140.551 14.9011 140.021 12.8242 138.961 11.0769C137.934 9.2967 136.461 7.91209 134.54 6.92308C132.652 5.93407 130.401 5.43956 127.784 5.43956H119.34V29.1758Z" fill="black"/>
<path d="M159.882 14.3901H177.169V19.6813H159.882V14.3901ZM160.379 29.2253H180V34.6154H153.921V0H179.305V5.39011H160.379V29.2253Z" fill="black"/>
</svg>
