<svg width="20" height="20" viewBox="0 0 20 20" fill="none" xmlns="http://www.w3.org/2000/svg">
<path d="M10.011 1.246C12.147 1.246 14.394 3.026 14.394 4.383V7.519C14.394 8.719 13.882 11.034 12.548 12.08C12.4185 12.1816 12.3105 12.308 12.2303 12.4517C12.15 12.5954 12.0991 12.7536 12.0805 12.9172C12.0619 13.0807 12.076 13.2464 12.1219 13.4044C12.1678 13.5625 12.2447 13.7099 12.348 13.838C12.4716 13.9937 12.6321 14.1161 12.815 14.194L18.243 16.775C18.4101 16.8177 18.5551 16.9213 18.6499 17.0654C18.7446 17.2094 18.7821 17.3837 18.755 17.554V18.778H1.246V17.508C1.24137 17.3496 1.28899 17.194 1.38152 17.0654C1.47405 16.9367 1.60634 16.842 1.758 16.796L7.253 14.196C7.55615 14.0564 7.79179 13.8026 7.9085 13.4899C8.02522 13.1772 8.01353 12.8311 7.876 12.527C7.79579 12.3516 7.6735 12.1988 7.52 12.082C6.32314 10.8609 5.6384 9.2285 5.606 7.519V4.383C5.628 3.07 7.897 1.246 10.006 1.246H10.011ZM10.011 0C7.253 0 4.383 2.314 4.383 4.383V7.519C4.383 8.876 5.006 11.657 6.763 13.058L1.246 15.64C1.246 15.64 1.61045e-06 16.2 1.61045e-06 16.885V18.754C-0.000261787 18.9177 0.0317872 19.0798 0.0943112 19.2311C0.156835 19.3824 0.248605 19.5199 0.364359 19.6356C0.480113 19.7514 0.617576 19.8432 0.768867 19.9057C0.920157 19.9682 1.0823 20.0003 1.246 20H18.754C18.9177 20.0003 19.0798 19.9682 19.2311 19.9057C19.3824 19.8432 19.5199 19.7514 19.6356 19.6356C19.7514 19.5199 19.8432 19.3824 19.9057 19.2311C19.9682 19.0798 20.0003 18.9177 20 18.754V16.885C20 16.151 18.754 15.639 18.754 15.639L13.326 13.058C15.061 11.7 15.64 9.01 15.64 7.519V4.383C15.64 2.314 12.77 0 10.011 0Z" fill="black" fill-opacity="0.5"/>
</svg>
